# xmcd
#
# Track frame offsets:
#	150
#	17057
#	35600
#	52962
#	65973
#	82853
#	96592
#	111643
#	128315
#	145370
#	156653
#	172597
#
# Disc length: 2474 seconds
#
# Revision: 0
# Processed by: cddbd v1.5PL3 Copyright (c) Steve Scherf et al.
# Submitted via: dBpowerAMP V4.0
#
DISCID=a409a80c
DTITLE=Jerry Williamson and Redwing - Right Combination
DYEAR=1995
DGENRE=Bluegrass
TTITLE0=Lonesome for the Mountains
TTITLE1=Old Railroad Track
TTITLE2=Moonshinen Bill
TTITLE3=You Couldn't Come Back Now
TTITLE4=Can't You Hear the Mountains Calling
TTITLE5=My Woman Loves Me
TTITLE6=Borrowed Time and Rented Land
TTITLE7=Where There's a Will There's a Way
TTITLE8=Look for the Light
TTITLE9=Which Way to Go
TTITLE10=Boy in the Tumbled Down Shack
TTITLE11=Baby, I'm Gone
EXTD=Blugrass from WV\nsubmited by Dwayne Toney
EXTT0=
EXTT1=
EXTT2=
EXTT3=
EXTT4=
EXTT5=
EXTT6=
EXTT7=
EXTT8=
EXTT9=
EXTT10=
EXTT11=
PLAYORDER=
